<?xml version="1.0" encoding="UTF-8"?>
<svg width="1238px" height="1238px" viewBox="0 0 1238 1238" version="1.1" xmlns="http://www.w3.org/2000/svg" xmlns:xlink="http://www.w3.org/1999/xlink">
    <title>Group 11 Copy</title>
    <g id="Page-1" stroke="none" stroke-width="1" fill="none" fill-rule="evenodd">
        <g id="Group-11-Copy">
            <rect id="Rectangle" fill="#FFFFFF" x="0" y="0" width="1238" height="1238"></rect>
            <path d="M173.584135,894.392218 C418.407488,1072.53593 818.205012,1072.53593 1063.6309,894.392218 C1095.59058,595.491744 896.596462,252.354769 618.607799,131 C341.22167,252.354769 140.41843,595.491744 173.584135,894.392218 Z M606.547533,894.989657 C637.301014,894.989657 662.627178,869.882515 662.627178,839.394463 C662.627178,808.906977 637.301014,783.799269 606.547533,783.799269 C575.793486,783.799269 550.467322,808.906977 550.467322,839.394463 C550.467322,869.882515 575.793486,894.989657 606.547533,894.989657 Z M522.728765,707.280702 C507.04991,707.280702 507.04991,688.749348 522.728765,688.749348 L600.517117,688.749348 C614.98921,688.749348 614.98921,707.280702 600.517117,707.280702 L522.728765,707.280702 Z M473.884601,953.574308 L473.884601,386.863377 C473.884601,354.581311 501.623158,330.067082 532.979737,330.067082 L600.517117,330.067082 C614.98921,330.067082 614.98921,348.601265 600.517117,348.601265 L534.185934,348.601265 C511.271031,348.601265 493.180914,364.142596 492.577816,388.656825 L473.884601,953.574308 Z M522.728765,647.501173 C507.04991,647.501173 507.04991,628.967556 522.728765,628.967556 L600.517117,628.967556 C614.98921,628.967556 614.98921,647.501173 600.517117,647.501173 L522.728765,647.501173 Z M794.086742,894.989657 C824.835698,894.989657 850.16469,869.882515 850.16469,839.394463 C850.16469,808.906977 824.835698,783.799269 794.086742,783.799269 C763.332129,783.799269 738.003137,808.906977 738.003137,839.394463 C738.003137,869.882515 763.332129,894.989657 794.086742,894.989657 Z M522.728765,587.723907 C507.04991,587.723907 507.04991,569.189724 522.728765,569.189724 L600.517117,569.189724 C614.98921,569.189724 614.98921,587.723907 600.517117,587.723907 L522.728765,587.723907 Z M522.728765,527.940418 C507.04991,527.940418 507.04991,509.411892 522.728765,509.411892 L600.517117,509.411892 C614.98921,509.411892 614.98921,527.940418 600.517117,527.940418 L522.728765,527.940418 Z M606.547533,913.521577 C564.939415,913.521577 531.773541,880.642638 531.773541,839.394463 C531.773541,798.146288 564.939415,765.267349 606.547533,765.267349 C632.476795,765.267349 654.788033,777.821486 668.054496,797.548849 L685.542081,677.988659 L640.31594,284.636835 L700.617272,636.141348 L760.316638,284.636835 L715.089366,677.988659 L732.57695,797.548849 C745.844545,777.821486 768.152389,765.267349 794.086742,765.267349 C835.692597,765.267349 868.85734,798.146288 868.85734,839.394463 C868.85734,880.642638 835.692597,913.521577 794.086742,913.521577 C755.490721,913.521577 725.944002,887.218426 719.913586,848.361703 C712.074441,796.35284 705.441492,749.126882 700.617272,716.247943 C695.189954,749.126882 688.557006,796.35284 680.717861,848.361703 C674.687445,887.218426 645.140159,913.521577 606.547533,913.521577 Z M522.728765,468.162586 C507.04991,468.162586 507.04991,449.628403 522.728765,449.628403 L600.517117,449.628403 C614.98921,449.628403 614.98921,468.162586 600.517117,468.162586 L522.728765,468.162586 Z M522.728765,408.379097 C507.04991,408.379097 507.04991,389.850571 522.728765,389.850571 L600.517117,389.850571 C614.98921,389.850571 614.98921,408.379097 600.517117,408.379097 L522.728765,408.379097 Z" id="Fill-2-Copy" fill="#624423"></path>
        </g>
    </g>
</svg>