<?xml version="1.0" encoding="UTF-8"?>
<svg width="700px" height="700px" viewBox="0 0 700 700" version="1.1" xmlns="http://www.w3.org/2000/svg" xmlns:xlink="http://www.w3.org/1999/xlink">
    <title>Fill 1 Copy 5</title>
    <g id="Page-1" stroke="none" stroke-width="1" fill="none" fill-rule="evenodd">
        <path d="M2.79705444,595.735092 C193.851635,734.754969 505.844685,734.754969 697.370929,595.735092 C722.311062,362.479958 567.02018,94.7019821 350.083374,0 C133.618232,94.7019821 -23.0851708,362.479958 2.79705444,595.735092 Z M340.641711,596.31016 C364.659267,596.31016 384.438503,576.699738 384.438503,552.887701 C384.438503,529.075663 364.659267,509.465241 340.641711,509.465241 C316.624156,509.465241 296.84492,529.075663 296.84492,552.887701 C296.84492,576.699738 316.624156,596.31016 340.641711,596.31016 Z M275.312239,449.946524 C263.095564,449.946524 263.095564,435.347594 275.312239,435.347594 L335.927115,435.347594 C347.20433,435.347594 347.20433,449.946524 335.927115,449.946524 L275.312239,449.946524 Z M237.326203,641.97861 L237.326203,199.670973 C237.326203,174.475812 259.001685,155.347594 283.503436,155.347594 L336.277769,155.347594 C347.586555,155.347594 347.586555,169.810453 336.277769,169.810453 L284.445525,169.810453 C266.540875,169.810453 252.404584,181.941868 251.933539,201.071321 L237.326203,641.97861 Z M275.312239,403.15508 C263.095564,403.15508 263.095564,388.55615 275.312239,388.55615 L335.927115,388.55615 C347.20433,388.55615 347.20433,403.15508 335.927115,403.15508 L275.312239,403.15508 Z M487.005965,596.31016 C511.023182,596.31016 530.802139,576.699738 530.802139,552.887701 C530.802139,529.075663 511.023182,509.465241 487.005965,509.465241 C462.987513,509.465241 443.208556,529.075663 443.208556,552.887701 C443.208556,576.699738 462.987513,596.31016 487.005965,596.31016 Z M275.312239,356.363636 C263.095564,356.363636 263.095564,341.764706 275.312239,341.764706 L335.927115,341.764706 C347.20433,341.764706 347.20433,356.363636 335.927115,356.363636 L275.312239,356.363636 Z M275.312239,309.946524 C263.095564,309.946524 263.095564,295.347594 275.312239,295.347594 L335.927115,295.347594 C347.20433,295.347594 347.20433,309.946524 335.927115,309.946524 L275.312239,309.946524 Z M340.620179,610.534759 C308.138195,610.534759 282.245989,584.877111 282.245989,552.689301 C282.245989,520.501491 308.138195,494.843843 340.620179,494.843843 C360.862592,494.843843 378.281345,504.640938 388.637239,520.034786 L402.289875,426.737054 L366.982995,119.786096 L414.058834,394.08254 L460.664064,119.786096 L425.357184,426.737054 L439.008585,520.034786 C449.365714,504.640938 466.783231,494.843843 487.02688,494.843843 C519.508864,494.843843 545.40107,520.501491 545.40107,552.689301 C545.40107,584.877111 519.508864,610.534759 487.02688,610.534759 C456.897947,610.534759 433.830638,590.008394 429.123301,559.686168 C423.002898,519.101377 417.824951,482.248989 414.058834,456.592576 C409.822108,482.248989 404.642925,519.101377 398.523758,559.686168 C393.816421,590.008394 370.749111,610.534759 340.620179,610.534759 Z M275.312239,263.15508 C263.095564,263.15508 263.095564,248.55615 275.312239,248.55615 L335.927115,248.55615 C347.20433,248.55615 347.20433,263.15508 335.927115,263.15508 L275.312239,263.15508 Z M275.312239,216.363636 C263.095564,216.363636 263.095564,201.764706 275.312239,201.764706 L335.927115,201.764706 C347.20433,201.764706 347.20433,216.363636 335.927115,216.363636 L275.312239,216.363636 Z" id="Fill-1-Copy-5" fill="#888888"></path>
    </g>
</svg>