<?xml version="1.0" encoding="UTF-8"?>
<svg width="300px" height="300px" viewBox="0 0 300 300" version="1.1" xmlns="http://www.w3.org/2000/svg" xmlns:xlink="http://www.w3.org/1999/xlink">
    <title>Fill 1 Copy 7</title>
    <g id="Page-1" stroke="none" stroke-width="1" fill="none" fill-rule="evenodd">
        <path d="M1.19873762,255.315039 C83.0792722,314.894987 216.790579,314.894987 298.873255,255.315039 C309.561884,155.348553 243.008649,40.5865637 150.035732,0 C57.2649566,40.5865637 -9.89364462,155.348553 1.19873762,255.315039 Z M145.989305,255.561497 C156.282543,255.561497 164.759358,247.157031 164.759358,236.951872 C164.759358,226.746713 156.282543,218.342246 145.989305,218.342246 C135.696067,218.342246 127.219251,226.746713 127.219251,236.951872 C127.219251,247.157031 135.696067,255.561497 145.989305,255.561497 Z M117.990959,192.834225 C112.755242,192.834225 112.755242,186.57754 117.990959,186.57754 L143.968764,186.57754 C148.801856,186.57754 148.801856,192.834225 143.968764,192.834225 L117.990959,192.834225 Z M101.71123,275.13369 L101.71123,85.5732741 C101.71123,74.775348 111.000722,66.5775401 121.501472,66.5775401 L144.119044,66.5775401 C148.965666,66.5775401 148.965666,72.7759085 144.119044,72.7759085 L121.905225,72.7759085 C114.231804,72.7759085 108.173393,77.9750864 107.971517,86.1734235 L101.71123,275.13369 Z M117.990959,172.780749 C112.755242,172.780749 112.755242,166.524064 117.990959,166.524064 L143.968764,166.524064 C148.801856,166.524064 148.801856,172.780749 143.968764,172.780749 L117.990959,172.780749 Z M208.716842,255.561497 C219.009935,255.561497 227.486631,247.157031 227.486631,236.951872 C227.486631,226.746713 219.009935,218.342246 208.716842,218.342246 C198.42322,218.342246 189.946524,226.746713 189.946524,236.951872 C189.946524,247.157031 198.42322,255.561497 208.716842,255.561497 Z M117.990959,152.727273 C112.755242,152.727273 112.755242,146.470588 117.990959,146.470588 L143.968764,146.470588 C148.801856,146.470588 148.801856,152.727273 143.968764,152.727273 L117.990959,152.727273 Z M117.990959,132.834225 C112.755242,132.834225 112.755242,126.57754 117.990959,126.57754 L143.968764,126.57754 C148.801856,126.57754 148.801856,132.834225 143.968764,132.834225 L117.990959,132.834225 Z M145.980077,261.657754 C132.059227,261.657754 120.962567,250.661619 120.962567,236.866843 C120.962567,223.072068 132.059227,212.075933 145.980077,212.075933 C154.655397,212.075933 162.120576,216.274688 166.558817,222.872051 L172.409946,182.887309 L157.278426,51.3368984 L177.453786,168.892517 L197.427456,51.3368984 L182.295936,182.887309 L188.146536,222.872051 C192.585306,216.274688 200.049956,212.075933 208.725806,212.075933 C222.646656,212.075933 233.743316,223.072068 233.743316,236.866843 C233.743316,250.661619 222.646656,261.657754 208.725806,261.657754 C195.813406,261.657754 185.927416,252.86074 183.909986,239.865501 C181.286956,222.472019 179.067836,206.678138 177.453786,195.682532 C175.638046,206.678138 173.418397,222.472019 170.795896,239.865501 C168.778466,252.86074 158.892476,261.657754 145.980077,261.657754 Z M117.990959,112.780749 C112.755242,112.780749 112.755242,106.524064 117.990959,106.524064 L143.968764,106.524064 C148.801856,106.524064 148.801856,112.780749 143.968764,112.780749 L117.990959,112.780749 Z M117.990959,92.7272727 C112.755242,92.7272727 112.755242,86.4705882 117.990959,86.4705882 L143.968764,86.4705882 C148.801856,86.4705882 148.801856,92.7272727 143.968764,92.7272727 L117.990959,92.7272727 Z" id="Fill-1-Copy-7" fill="#FFFFFF"></path>
    </g>
</svg>